<?xml version="1.0" standalone="no"?>
<!DOCTYPE svg PUBLIC "-//W3C//DTD SVG 1.0//EN" "http://www.w3.org/TR/2001/REC-SVG-20010904/DTD/svg10.dtd">
<svg xmlns="http://www.w3.org/2000/svg" xmlns:xlink="http://www.w3.org/1999/xlink" id="body_1" style="fill:#515151;" width="667" height="667">

<defs>
    <clipPath  id="1">

    <path id=""  clip-rule="evenodd" transform="matrix(1 0 0 1 0 0)"  d="M500 0L500 500L500 500L0 500L0 500L0 0L0 0L500 0z" />    </clipPath>
</defs>

<g transform="matrix(1.3333 0 0 1.3333 0 0)">
	<g clip-path="url(#1)" >
    <path id="" class="svg-slide-prev" transform="matrix(1 0 0 -1 0 500)"  d="M111.10275 230.48999L111.10275 230.48999L111.10275 230.48999L333.60907 7.98774L333.60907 7.98774L333.60907 7.98774C 338.75537 2.8373754 345.62524 -1.8905457E-14 352.95038 -1.8008385E-14L352.95038 -1.8008385E-14L352.95038 -1.8008385E-14C 360.27554 -1.7111312E-14 367.1454 2.8373754 372.2917 7.98774L372.2917 7.98774L388.67773 24.36972C 399.34027 35.04443 399.34027 52.393883 388.67773 63.052334L388.67773 63.052334L201.83371 249.89632L201.83371 249.89632L388.88504 436.94763L388.88504 436.94763L388.88504 436.94763C 394.03134 442.098 396.87277 448.9638 396.87277 456.28485L396.87277 456.28485L396.87277 456.28485C 396.87277 463.61407 394.03134 470.4799 388.88504 475.6343L388.88504 475.6343L372.499 492.0122C 367.34863 497.16257 360.48285 499.99994 353.15768 499.99994L353.15768 499.99994L353.15768 499.99994C 345.83252 499.99994 338.96268 497.16257 333.81638 492.0122L333.81638 492.0122L111.10275 269.30676C 105.944244 264.14014 103.11093 257.24182 103.12723 249.90854L103.12723 249.90854L103.12723 249.90854C 103.11096 242.54681 105.944275 235.65254 111.10275 230.48999z" />
	</g>
</g>
</svg>